<svg xmlns="http://www.w3.org/2000/svg" viewBox="0 0 162.98 145.9"><defs><style>.cls-1{fill:#ffffff;}</style></defs><g id="Layer_2" data-name="Layer 2"><g id="图层_1" data-name="图层 1"><path class="cls-1" d="M163,49c0-.09,0-.17,0-.26s0-.29,0-.43,0-.27-.06-.4a2,2,0,0,0-.05-.24,6.32,6.32,0,0,0-.73-1.86L136.32,3A6.26,6.26,0,0,0,131,0H33.7a6.24,6.24,0,0,0-5.25,2.87L1,45.69a6.24,6.24,0,0,0-.83,2c0,.06,0,.12,0,.18l-.06.39c0,.13,0,.26,0,.4s0,.19,0,.29,0,.1,0,.15v90.55a6.24,6.24,0,0,0,6.24,6.25h150.5a6.24,6.24,0,0,0,6.24-6.25V49ZM145.7,42.82h-58V12.48h39.71ZM37.11,12.48H75.25V42.82H17.66ZM150.5,133.41h-138V55.34h138Z"/><path class="cls-1" d="M55.86,86.06h51.26a6.25,6.25,0,0,0,0-12.49H55.86a6.25,6.25,0,0,0,0,12.49Z"/></g></g></svg>
